<svg id="Layer_1" data-name="Layer 1" xmlns="http://www.w3.org/2000/svg" viewBox="0 0 387.3 135.89"><defs><style>.cls-1,.cls-3{fill:#10384f;}.cls-2,.cls-5{fill:#ff3162;}.cls-3,.cls-4,.cls-5,.cls-6{fill-rule:evenodd;}.cls-4,.cls-6{fill:#d30f4b;}.cls-6{opacity:0.5;}.cls-7{fill:#fff;}</style></defs><g id="COLID_Logo_coloured"><g id="Claim"><g id="Corporate"><path class="cls-1" d="M301,304.4l-4.56,12h2.15l1.11-3.17h4.74l1.12,3.17h2.22l-4.57-12Zm-.73,7.21,1.79-5.15h.05l1.78,5.15Z" transform="translate(-50 -181.58)"/><path class="cls-1" d="M267.4,311.77a5.09,5.09,0,0,0,2.07-.36,3.19,3.19,0,0,0,1.23-.91,3.36,3.36,0,0,0,.59-1.2,5.3,5.3,0,0,0,.15-1.19,5.47,5.47,0,0,0-.15-1.21,3.06,3.06,0,0,0-1.82-2.13,5.08,5.08,0,0,0-2.07-.37h-5.23v12h2.07v-4.6Zm-3.16-5.66h3.08a3.21,3.21,0,0,1,.78.09,1.41,1.41,0,0,1,.65.31,1.5,1.5,0,0,1,.45.61,2.44,2.44,0,0,1,.17,1,2.09,2.09,0,0,1-.2,1,1.62,1.62,0,0,1-.49.6,2.15,2.15,0,0,1-.68.33,3,3,0,0,1-.71.1h-3.05Z" transform="translate(-50 -181.58)"/><path class="cls-1" d="M276,316.16a6,6,0,0,0,4.77,0,5.33,5.33,0,0,0,1.79-1.35,6.2,6.2,0,0,0,1.12-2,7.7,7.7,0,0,0,0-4.84,6.15,6.15,0,0,0-1.12-2,5.49,5.49,0,0,0-1.79-1.36,5.94,5.94,0,0,0-4.77,0A5.39,5.39,0,0,0,274.2,306a6,6,0,0,0-1.12,2,7.7,7.7,0,0,0,0,4.84,6,6,0,0,0,1.12,2A5.23,5.23,0,0,0,276,316.16Zm-1-7.45a4.65,4.65,0,0,1,.64-1.47,3.26,3.26,0,0,1,1.12-1,3.73,3.73,0,0,1,3.28,0,3.26,3.26,0,0,1,1.12,1,4.65,4.65,0,0,1,.64,1.47,6.7,6.7,0,0,1,.21,1.67,6.78,6.78,0,0,1-.21,1.68,4.65,4.65,0,0,1-.64,1.47,3.26,3.26,0,0,1-1.12,1,3.73,3.73,0,0,1-3.28,0,3.26,3.26,0,0,1-1.12-1,4.65,4.65,0,0,1-.64-1.47,6.78,6.78,0,0,1-.21-1.68A6.7,6.7,0,0,1,275,308.71Z" transform="translate(-50 -181.58)"/><polygon class="cls-1" points="262.11 134.78 262.11 124.63 265.89 124.63 265.89 122.82 256.28 122.82 256.28 124.63 260.03 124.63 260.03 134.78 262.11 134.78"/><path class="cls-1" d="M294.12,310.45a2.17,2.17,0,0,0,.66-.49,3,3,0,0,0,.58-.91,3.39,3.39,0,0,0,.25-1.41,3,3,0,0,0-1-2.38,4.37,4.37,0,0,0-2.94-.86H286v12h2.07v-4.93h3.06a3.29,3.29,0,0,1,1.18.18,1.65,1.65,0,0,1,.72.58,2.47,2.47,0,0,1,.37,1,9.55,9.55,0,0,1,.1,1.42c0,.29,0,.59,0,.9a2.12,2.12,0,0,0,.27.86h2.23a2.53,2.53,0,0,1-.49-1.24,10.17,10.17,0,0,1-.16-1.91,3.64,3.64,0,0,0-.17-1.18,2.62,2.62,0,0,0-.44-.76,1.79,1.79,0,0,0-.58-.43,1.89,1.89,0,0,0-.57-.16v0A3.93,3.93,0,0,0,294.12,310.45Zm-1.1-1.08a2.17,2.17,0,0,1-1.52.48h-3.41v-3.74h3.38a3.87,3.87,0,0,1,.77.07,1.58,1.58,0,0,1,.67.27,1.35,1.35,0,0,1,.46.56,2.25,2.25,0,0,1,.16.93A1.88,1.88,0,0,1,293,309.37Z" transform="translate(-50 -181.58)"/><path class="cls-1" d="M227.93,307.24a3.17,3.17,0,0,1,1.12-1,3.4,3.4,0,0,1,1.64-.38,3.6,3.6,0,0,1,1.14.17,2.77,2.77,0,0,1,.85.5,2.43,2.43,0,0,1,.6.75,4.07,4.07,0,0,1,.37,1h2.08a4.49,4.49,0,0,0-.52-1.73,4.2,4.2,0,0,0-1.09-1.28,5.08,5.08,0,0,0-1.55-.81,6.43,6.43,0,0,0-1.88-.27,5.55,5.55,0,0,0-2.39.5,5.49,5.49,0,0,0-1.79,1.36,6.15,6.15,0,0,0-1.12,2,7.7,7.7,0,0,0,0,4.84,6.2,6.2,0,0,0,1.12,2,5.33,5.33,0,0,0,1.79,1.35,5.55,5.55,0,0,0,2.39.49,5.49,5.49,0,0,0,2-.35,4.8,4.8,0,0,0,1.56-1,4.85,4.85,0,0,0,1.05-1.53,5.42,5.42,0,0,0,.46-2h-2a4.83,4.83,0,0,1-.28,1.22,3.07,3.07,0,0,1-.6,1,2.76,2.76,0,0,1-.91.67,3,3,0,0,1-1.23.24,3.4,3.4,0,0,1-1.64-.38,3.17,3.17,0,0,1-1.12-1,4.65,4.65,0,0,1-.64-1.47,6.78,6.78,0,0,1-.21-1.68,6.7,6.7,0,0,1,.21-1.67A4.65,4.65,0,0,1,227.93,307.24Z" transform="translate(-50 -181.58)"/><path class="cls-1" d="M240.37,316.16a6,6,0,0,0,4.77,0,5.33,5.33,0,0,0,1.79-1.35,6,6,0,0,0,1.12-2,7.7,7.7,0,0,0,0-4.84,6,6,0,0,0-1.12-2,5.49,5.49,0,0,0-1.79-1.36,5.94,5.94,0,0,0-4.77,0,5.39,5.39,0,0,0-1.79,1.36,6,6,0,0,0-1.12,2,7.7,7.7,0,0,0,0,4.84,6,6,0,0,0,1.12,2A5.23,5.23,0,0,0,240.37,316.16Zm-1-7.45a4.89,4.89,0,0,1,.64-1.47,3.29,3.29,0,0,1,1.13-1,3.71,3.71,0,0,1,3.27,0,3.17,3.17,0,0,1,1.12,1,4.44,4.44,0,0,1,.64,1.47,6.7,6.7,0,0,1,.21,1.67,6.78,6.78,0,0,1-.21,1.68,4.44,4.44,0,0,1-.64,1.47,3.17,3.17,0,0,1-1.12,1,3.71,3.71,0,0,1-3.27,0,3.29,3.29,0,0,1-1.13-1,4.89,4.89,0,0,1-.64-1.47,6.78,6.78,0,0,1-.2-1.68A6.7,6.7,0,0,1,239.35,308.71Z" transform="translate(-50 -181.58)"/><polygon class="cls-1" points="275.88 124.63 275.88 122.82 267.33 122.82 267.33 134.78 275.99 134.78 275.99 132.97 269.41 132.97 269.41 129.47 275.39 129.47 275.39 127.76 269.41 127.76 269.41 124.63 275.88 124.63"/><path class="cls-1" d="M258.5,310.45a2.17,2.17,0,0,0,.66-.49,3,3,0,0,0,.58-.91,3.39,3.39,0,0,0,.25-1.41,3,3,0,0,0-1-2.38,4.35,4.35,0,0,0-2.94-.86H250.4v12h2.08v-4.93h3.06a3.27,3.27,0,0,1,1.17.18,1.65,1.65,0,0,1,.72.58,2.47,2.47,0,0,1,.37,1,9.55,9.55,0,0,1,.1,1.42c0,.29,0,.59,0,.9a2.12,2.12,0,0,0,.27.86h2.23a2.63,2.63,0,0,1-.49-1.24,11.08,11.08,0,0,1-.16-1.91,3.64,3.64,0,0,0-.17-1.18,2.62,2.62,0,0,0-.44-.76,1.79,1.79,0,0,0-.58-.43,1.89,1.89,0,0,0-.57-.16v0A3.93,3.93,0,0,0,258.5,310.45Zm-1.1-1.08a2.16,2.16,0,0,1-1.51.48h-3.41v-3.74h3.37a4,4,0,0,1,.78.07,1.54,1.54,0,0,1,.66.27,1.35,1.35,0,0,1,.46.56,2.25,2.25,0,0,1,.16.93A1.88,1.88,0,0,1,257.4,309.37Z" transform="translate(-50 -181.58)"/></g><g id="Linked"><path class="cls-2" d="M389.62,314.19a5.54,5.54,0,0,0,.94-1.88,8.93,8.93,0,0,0,0-4.59,5.54,5.54,0,0,0-.94-1.88,4.43,4.43,0,0,0-1.62-1.26,5.51,5.51,0,0,0-2.35-.46h-4.9v11.79h4.9a5.51,5.51,0,0,0,2.35-.46A4.43,4.43,0,0,0,389.62,314.19Zm-4.77,0h-2V305.8h2a5,5,0,0,1,2,.33A2.86,2.86,0,0,1,388,307a3.28,3.28,0,0,1,.6,1.34,8.61,8.61,0,0,1,.15,1.66,8.76,8.76,0,0,1-.15,1.66A3.3,3.3,0,0,1,388,313a3,3,0,0,1-1.21.9A5.25,5.25,0,0,1,384.85,314.23Z" transform="translate(-50 -181.58)"/><polygon class="cls-2" points="282.63 122.53 282.63 134.33 290.7 134.33 290.7 132.55 284.69 132.55 284.69 122.53 282.63 122.53"/><polygon class="cls-2" points="298.79 125.66 304.17 134.33 306.35 134.33 306.35 122.53 304.38 122.53 304.38 131.22 304.35 131.22 298.95 122.53 296.77 122.53 296.77 134.33 298.74 134.33 298.74 125.66 298.79 125.66"/><rect class="cls-2" x="292.19" y="122.53" width="2.07" height="11.79"/><polygon class="cls-2" points="328.77 124.32 328.77 122.53 320.26 122.53 320.26 134.33 328.88 134.33 328.88 132.55 322.33 132.55 322.33 129.09 328.29 129.09 328.29 127.41 322.33 127.41 322.33 124.32 328.77 124.32"/><polygon class="cls-2" points="308.86 122.53 308.86 134.33 310.93 134.33 310.93 130.37 312.62 128.7 316.49 134.33 319.07 134.33 314.03 127.24 318.74 122.53 316.19 122.53 310.93 127.9 310.93 122.53 308.86 122.53"/></g><g id="Data"><path class="cls-1" d="M406.36,314.19a5.34,5.34,0,0,0,.93-1.88,8.65,8.65,0,0,0,0-4.59,5.34,5.34,0,0,0-.93-1.88,4.43,4.43,0,0,0-1.62-1.26,5.51,5.51,0,0,0-2.35-.46H397.5v11.79h4.89a5.51,5.51,0,0,0,2.35-.46A4.43,4.43,0,0,0,406.36,314.19Zm-4.76,0h-2V305.8h2a5,5,0,0,1,2,.33,2.86,2.86,0,0,1,1.21.89,3.14,3.14,0,0,1,.59,1.34,7.86,7.86,0,0,1,.16,1.66,8,8,0,0,1-.16,1.66,3.16,3.16,0,0,1-.59,1.33,3,3,0,0,1-1.21.9A5.23,5.23,0,0,1,401.6,314.23Z" transform="translate(-50 -181.58)"/><path class="cls-1" d="M428.16,315.91l1.11-3.12H434l1.11,3.12h2.21l-4.54-11.79h-2.2L426,315.91Zm3.46-9.76h.05l1.77,5.07h-3.61Z" transform="translate(-50 -181.58)"/><polygon class="cls-1" points="367.94 124.32 371.67 124.32 371.67 134.33 373.74 134.33 373.74 124.32 377.49 124.32 377.49 122.53 367.94 122.53 367.94 124.32"/><path class="cls-1" d="M412.65,304.12l-4.53,11.79h2.13l1.11-3.12h4.71l1.11,3.12h2.21l-4.54-11.79Zm-.73,7.1,1.79-5.07h.05l1.77,5.07Z" transform="translate(-50 -181.58)"/></g></g><g id="Wordmark"><path class="cls-1" d="M398.07,280.15H382V228.24h12.85a28.93,28.93,0,0,1,11.19,1.9,17.56,17.56,0,0,1,7.28,5.48,22.38,22.38,0,0,1,4,8.59,48,48,0,0,1,1.21,11.25A34.14,34.14,0,0,1,416.78,267a21.26,21.26,0,0,1-4.59,7.67,16.82,16.82,0,0,1-6.54,4.21A23.24,23.24,0,0,1,398.07,280.15Zm1.52,15.42A39.41,39.41,0,0,0,416,292.38a32.69,32.69,0,0,0,11.66-8.75,36.74,36.74,0,0,0,7-13.21A57.5,57.5,0,0,0,437,253.73a51.61,51.61,0,0,0-2.83-18A35.37,35.37,0,0,0,426.32,223a32.23,32.23,0,0,0-11.9-7.65,42.27,42.27,0,0,0-14.83-2.55H364v82.75Zm-45.85,0V212.82h-18v82.75Zm-28.27,0v-15.3H285.1V212.82H266.88v82.75ZM218.83,282.2a21.1,21.1,0,0,1-10.38-2.37,19.78,19.78,0,0,1-6.91-6.31,27.37,27.37,0,0,1-3.86-8.85,42.11,42.11,0,0,1-1.21-10.13A45.16,45.16,0,0,1,197.68,244a27.92,27.92,0,0,1,3.86-9.09,19.76,19.76,0,0,1,6.91-6.37,23.89,23.89,0,0,1,20.75,0,19.67,19.67,0,0,1,6.91,6.37A27.71,27.71,0,0,1,240,244a45.16,45.16,0,0,1,1.21,10.53A42.11,42.11,0,0,1,240,264.67a27.16,27.16,0,0,1-3.86,8.85,19.69,19.69,0,0,1-6.91,6.31A21.06,21.06,0,0,1,218.83,282.2Zm.25,14.91a42.2,42.2,0,0,0,17.12-3.3,36.59,36.59,0,0,0,12.73-9.07,40.13,40.13,0,0,0,8-13.58,49.84,49.84,0,0,0,2.78-16.82,51.51,51.51,0,0,0-2.78-17.16,41.23,41.23,0,0,0-8-13.82,36.5,36.5,0,0,0-12.73-9.24,45.14,45.14,0,0,0-34.18,0,36.42,36.42,0,0,0-12.78,9.24,41.23,41.23,0,0,0-8,13.82,51.51,51.51,0,0,0-2.78,17.16,49.84,49.84,0,0,0,2.78,16.82,40.13,40.13,0,0,0,8,13.58A36.51,36.51,0,0,0,202,293.81,42.31,42.31,0,0,0,219.08,297.11Z" transform="translate(-50 -181.58)"/></g><g id="Signet"><path class="cls-3" d="M128.31,295.47a45.95,45.95,0,1,1,31-79.74l15.51-15.56a67.45,67.45,0,0,0-53.36-18.24c-11.84-.33-25.63,2.68-38.5,8.9-17.65,8.54-29.69,21.87-33,34.39A76.41,76.41,0,0,1,69.49,205.3c-11,11-16.9,24.45-16.77,36.37,3.42-11.75,10.94-23.68,22-33.68A67.81,67.81,0,0,0,167,305.26l-15.87-15.92A45.4,45.4,0,0,1,128.31,295.47Z" transform="translate(-50 -181.58)"/><path class="cls-4" d="M155.67,307.12c-16.4-16.39-19.38-56.83-19.38-56.83s46.78-3.36,59.34,9.21C210.57,274.43,215,316.33,215,316.33S167.77,319.23,155.67,307.12Z" transform="translate(-50 -181.58)"/><path class="cls-5" d="M121.76,278.31c-16.54-16.53-19.38-56.84-19.38-56.84s48-2.84,59.34,9.21C178,248,181.09,287.52,181.09,287.52S133.72,290.28,121.76,278.31Z" transform="translate(-50 -181.58)"/><path class="cls-6" d="M173.52,251.57q-14.67-2.17-37.23-1.28c2,14.65,7.3,35.89,7.57,35.94,4.14.77,21.15,2,37.23,1.29,0,0-3.09-26.52-7.38-35.37Z" transform="translate(-50 -181.58)"/><ellipse class="cls-7" cx="141.52" cy="254.66" rx="18.13" ry="18.16" transform="translate(-194.49 17.63) rotate(-49.97)"/><ellipse class="cls-1" cx="141.52" cy="254.66" rx="14.33" ry="14.36" transform="translate(-194.53 17.83) rotate(-50.01)"/><ellipse class="cls-7" cx="147.61" cy="252.11" rx="3.8" ry="3.81" transform="translate(-190.4 21.58) rotate(-50.01)"/></g></g></svg>