<svg id="Layer_1" data-name="Layer 1" xmlns="http://www.w3.org/2000/svg" viewBox="0 0 165 135.89"><defs><style>.cls-1,.cls-6{fill:#10384f;}.cls-1,.cls-2,.cls-3,.cls-4{fill-rule:evenodd;}.cls-2,.cls-4{fill:#d30f4b;}.cls-3{fill:#ff3162;}.cls-4{opacity:0.5;}.cls-5{fill:#fff;}</style></defs><g id="COLID_Logo_coloured"><g id="Signet"><path class="cls-1" d="M128.31,295.47a45.95,45.95,0,1,1,31-79.74l15.51-15.56a67.45,67.45,0,0,0-53.36-18.24c-11.84-.33-25.63,2.68-38.5,8.9-17.65,8.54-29.69,21.87-33,34.39A76.41,76.41,0,0,1,69.49,205.3c-11,11-16.9,24.45-16.77,36.37,3.42-11.75,10.94-23.68,22-33.68A67.81,67.81,0,0,0,167,305.26l-15.87-15.92A45.4,45.4,0,0,1,128.31,295.47Z" transform="translate(-50 -181.58)"/><path class="cls-2" d="M155.67,307.12c-16.4-16.39-19.38-56.83-19.38-56.83s46.78-3.36,59.34,9.21C210.57,274.43,215,316.33,215,316.33S167.77,319.23,155.67,307.12Z" transform="translate(-50 -181.58)"/><path class="cls-3" d="M121.76,278.31c-16.54-16.53-19.38-56.84-19.38-56.84s48-2.84,59.34,9.21C178,248,181.09,287.52,181.09,287.52S133.72,290.28,121.76,278.31Z" transform="translate(-50 -181.58)"/><path class="cls-4" d="M173.52,251.57q-14.67-2.17-37.23-1.28c2,14.65,7.3,35.89,7.57,35.94,4.14.77,21.15,2,37.23,1.29,0,0-3.09-26.52-7.38-35.37Z" transform="translate(-50 -181.58)"/><ellipse class="cls-5" cx="141.52" cy="254.66" rx="18.13" ry="18.16" transform="translate(-194.49 17.63) rotate(-49.97)"/><ellipse class="cls-6" cx="141.52" cy="254.66" rx="14.33" ry="14.36" transform="translate(-194.53 17.83) rotate(-50.01)"/><ellipse class="cls-5" cx="147.61" cy="252.11" rx="3.8" ry="3.81" transform="translate(-190.4 21.58) rotate(-50.01)"/></g></g></svg>