<?xml version="1.0" encoding="UTF-8"?>
<svg width="309px" height="64px" viewBox="0 0 309 64" version="1.1" xmlns="http://www.w3.org/2000/svg" xmlns:xlink="http://www.w3.org/1999/xlink">
    <!-- Generator: Sketch 63.1 (92452) - https://sketch.com -->
    <title>elastic-search-logo-color-horizontal</title>
    <desc>Created with Sketch.</desc>
    <g id="elastic-search-logo-color-horizontal" stroke="none" stroke-width="1" fill="none" fill-rule="evenodd">
        <rect id="bounding-box" x="0" y="0" width="309" height="64"></rect>
        <g id="group" transform="translate(6.000000, 5.000000)">
            <path d="M47.7246,9.708 L47.7276,9.702 C42.7746,3.774 35.3286,0 26.9996,0 C16.4006,0 7.2326,6.112 2.8136,15 L38.0056,15 C40.5306,15 42.9886,14.13 44.9206,12.504 C45.9246,11.659 46.8636,10.739 47.7246,9.708" id="Fill-1" fill="#FEC514"></path>
            <path d="M0,27.0005 C0,29.4225 0.324,31.7675 0.922,34.0005 L34,34.0005 C37.866,34.0005 41,30.8665 41,27.0005 C41,23.1345 37.866,20.0005 34,20.0005 L0.922,20.0005 C0.324,22.2335 0,24.5785 0,27.0005" id="Fill-4" fill="#343741"></path>
            <path d="M47.7246,44.293 L47.7276,44.299 C42.7746,50.227 35.3286,54.001 26.9996,54.001 C16.4006,54.001 7.2326,47.889 2.8136,39.001 L38.0056,39.001 C40.5306,39.001 42.9886,39.871 44.9206,41.497 C45.9246,42.342 46.8636,43.262 47.7246,44.293" id="Fill-6" fill="#00BFB3"></path>
        </g>
        <path d="M92.8762688,46.3916084 L92.8762688,41.4839161 L79.2901645,41.4839161 L79.2901645,34.5888112 L89.5498775,34.5888112 L89.5498775,29.6811189 L79.2901645,29.6811189 L79.2901645,22.9076923 L92.8762688,22.9076923 L92.8762688,18 L74,18 L74,46.3916084 L92.8762688,46.3916084 Z M102.49475,46.3916084 L102.49475,18 L97.4450473,18 L97.4450473,46.3916084 L102.49475,46.3916084 Z M113.155233,46.9594406 C115.439622,46.9594406 117.724011,45.9454545 118.645782,44.4853147 L118.80609,44.4853147 L118.80609,46.3916084 L123.575254,46.3916084 L123.575254,34.1426573 C123.575254,29.1944056 120.729786,26.4363636 115.640007,26.4363636 C111.271614,26.4363636 108.145607,28.4643357 107.023451,31.993007 L112.073154,32.3986014 C112.514001,31.3440559 113.59608,30.4923077 115.319391,30.4923077 C117.363318,30.4923077 118.565628,31.7090909 118.565628,33.8181818 L118.565628,35.2377622 C117.924396,34.8727273 116.281239,34.5076923 114.638082,34.5076923 C109.548302,34.5076923 106.462373,36.9006993 106.462373,40.9160839 C106.462373,44.4447552 109.227686,46.9594406 113.155233,46.9594406 Z M114.598005,42.9846154 C112.674309,42.9846154 111.552153,42.0111888 111.552153,40.5104895 C111.552153,39.0097902 112.874694,38.0363636 115.19916,38.0363636 C116.682009,38.0363636 118.084704,38.4013986 118.645782,38.8881119 L118.645782,40.1454545 C118.645782,41.6461538 116.762163,42.9846154 114.598005,42.9846154 Z M134.917046,47 C139.606055,47 142.772139,44.4447552 142.772139,40.5104895 C142.772139,32.7230769 132.552503,36.048951 132.552503,32.2363636 C132.552503,31.1412587 133.434197,30.2895105 134.9972,30.2895105 C136.520126,30.2895105 137.722436,31.1412587 137.962898,32.3986014 L142.651908,31.3846154 C141.850368,28.4237762 138.804515,26.4363636 134.876969,26.4363636 C130.508575,26.4363636 127.542877,28.9104895 127.542877,32.6013986 C127.542877,40.4293706 137.762513,37.1034965 137.762513,40.8755245 C137.762513,42.2951049 136.760588,43.227972 135.037277,43.227972 C133.273889,43.227972 131.79104,42.2545455 131.39027,40.7538462 L126.741337,41.6461538 C127.783339,45.0531469 130.789114,47 134.917046,47 Z M154.354393,46.7972028 C155.797165,46.7972028 156.959398,46.5538462 157.640707,46.2699301 L157.119706,42.213986 C156.678859,42.4167832 156.117781,42.579021 155.356318,42.579021 C153.472699,42.579021 152.510851,41.7678322 152.510851,39.172028 L152.510851,31.3846154 L157.440322,31.3846154 L157.440322,27.0447552 L152.510851,27.0447552 L152.510851,20.9202797 L147.461148,21.9342657 L147.461148,27.0447552 L144.174834,27.0447552 L144.174834,31.3846154 L147.461148,31.3846154 L147.461148,39.9832168 C147.461148,45.0937063 150.346692,46.7972028 154.354393,46.7972028 Z M165.415646,22.9076923 L165.415646,18 L160.365943,18 L160.365943,22.9076923 L165.415646,22.9076923 Z M165.415646,46.3916084 L165.415646,27.0447552 L160.365943,27.0447552 L160.365943,46.3916084 L165.415646,46.3916084 Z M178.801365,47 C183.089604,47 186.255688,44.7692308 187.417921,40.7538462 L182.688834,39.5370629 C182.127756,41.3622378 180.765138,42.5384615 178.641057,42.5384615 C175.635282,42.5384615 173.952048,40.1048951 173.952048,36.7384615 C173.952048,33.3314685 175.635282,30.9384615 178.641057,30.9384615 C180.765138,30.9384615 182.20791,32.0335664 182.768988,33.8993007 L187.658383,33.2097902 C186.576304,28.7888112 183.450298,26.4363636 178.520826,26.4363636 C173.190585,26.4363636 168.902345,30.3706294 168.902345,36.6979021 C168.902345,42.7412587 172.869968,47 178.801365,47 Z M197.637557,47 C202.326566,47 205.49265,44.4447552 205.49265,40.5104895 C205.49265,32.7230769 195.273014,36.048951 195.273014,32.2363636 C195.273014,31.1412587 196.154708,30.2895105 197.717711,30.2895105 C199.240637,30.2895105 200.442947,31.1412587 200.683409,32.3986014 L205.372419,31.3846154 C204.570879,28.4237762 201.525026,26.4363636 197.59748,26.4363636 C193.229086,26.4363636 190.263388,28.9104895 190.263388,32.6013986 C190.263388,40.4293706 200.483024,37.1034965 200.483024,40.8755245 C200.483024,42.2951049 199.481099,43.227972 197.757788,43.227972 C195.9944,43.227972 194.511551,42.2545455 194.110781,40.7538462 L189.461848,41.6461538 C190.50385,45.0531469 193.509625,47 197.637557,47 Z M217.876444,47 C221.80399,47 224.649457,45.1748252 226.252538,41.6055944 L222.044452,40.3888112 C221.242912,41.9300699 219.80014,42.8223776 217.916521,42.8223776 C215.271439,42.8223776 213.347742,40.9566434 212.866818,38.158042 L227.014001,38.158042 L227.014001,36.9412587 C226.973924,30.2895105 222.805915,26.4363636 217.39552,26.4363636 C211.784739,26.4363636 207.736962,30.8979021 207.736962,36.779021 C207.736962,42.7006993 211.945047,47 217.876444,47 Z M221.763913,34.6699301 L212.906895,34.6699301 C213.427896,31.7902098 215.111131,30.3706294 217.475674,30.3706294 C219.719986,30.3706294 221.603605,31.7496503 221.763913,34.6699301 Z M236.432097,46.9594406 C238.716486,46.9594406 241.000875,45.9454545 241.922646,44.4853147 L242.082954,44.4853147 L242.082954,46.3916084 L246.852118,46.3916084 L246.852118,34.1426573 C246.852118,29.1944056 244.00665,26.4363636 238.916871,26.4363636 C234.548477,26.4363636 231.422471,28.4643357 230.300315,31.993007 L235.350018,32.3986014 C235.790865,31.3440559 236.872944,30.4923077 238.596255,30.4923077 C240.640182,30.4923077 241.842492,31.7090909 241.842492,33.8181818 L241.842492,35.2377622 C241.20126,34.8727273 239.558103,34.5076923 237.914946,34.5076923 C232.825166,34.5076923 229.739237,36.9006993 229.739237,40.9160839 C229.739237,44.4447552 232.50455,46.9594406 236.432097,46.9594406 Z M237.874869,42.9846154 C235.951173,42.9846154 234.829016,42.0111888 234.829016,40.5104895 C234.829016,39.0097902 236.151558,38.0363636 238.476024,38.0363636 C239.958873,38.0363636 241.361568,38.4013986 241.922646,38.8881119 L241.922646,40.1454545 C241.922646,41.6461538 240.039027,42.9846154 237.874869,42.9846154 Z M256.19006,46.3916084 L256.19006,37.7118881 C256.19006,33.1692308 258.274064,31.6685315 261.039377,31.6685315 C261.520301,31.6685315 262.081379,31.7496503 262.442072,31.9118881 L262.442072,27.0041958 C262.161533,26.841958 261.640532,26.7202797 260.9993,26.7202797 C258.795065,26.7202797 256.871369,27.9776224 255.90952,30.1678322 L255.829366,30.1678322 L255.829366,27.0447552 L251.140357,27.0447552 L251.140357,46.3916084 L256.19006,46.3916084 Z M273.904095,47 C278.192335,47 281.358418,44.7692308 282.520651,40.7538462 L277.791565,39.5370629 C277.230487,41.3622378 275.867868,42.5384615 273.743787,42.5384615 C270.738012,42.5384615 269.054778,40.1048951 269.054778,36.7384615 C269.054778,33.3314685 270.738012,30.9384615 273.743787,30.9384615 C275.867868,30.9384615 277.310641,32.0335664 277.871719,33.8993007 L282.761113,33.2097902 C281.679034,28.7888112 278.553028,26.4363636 273.623556,26.4363636 C268.293315,26.4363636 264.005075,30.3706294 264.005075,36.6979021 C264.005075,42.7412587 267.972699,47 273.904095,47 Z M290.736437,46.3916084 L290.736437,35.2783217 C290.736437,32.6825175 292.539902,30.9384615 294.744137,30.9384615 C296.788064,30.9384615 297.950298,32.2769231 297.950298,34.9538462 L297.950298,46.3916084 L303,46.3916084 L303,34.020979 C303,29.2755245 300.435072,26.4363636 296.30714,26.4363636 C293.90252,26.4363636 291.738362,27.7342657 290.736437,29.1944056 L290.736437,18 L285.686734,18 L285.686734,46.3916084 L290.736437,46.3916084 Z" id="Elasticsearch" fill="#343741" fill-rule="nonzero"></path>
    </g>
</svg>